<svg width="219" height="88" viewBox="0 0 219 88" fill="none" xmlns="http://www.w3.org/2000/svg">
<path d="M0.512696 0.420029L0.512695 87.5957L87.6884 87.5957L87.6884 0.42003L0.512696 0.420029Z" fill="#508883"/>
<path d="M22.3066 0.419976C22.3066 24.4841 41.8303 44.0078 65.8944 44.0078L44.1005 44.0078C20.0364 44.0078 0.512696 24.4841 0.512696 0.419976L22.3066 0.419976Z" fill="#CBD0D5"/>
<path d="M22.3066 0.419976L44.1006 0.419976C44.1006 24.4841 63.6243 44.0078 87.6884 44.0078L65.8945 44.0078C41.8304 44.0078 22.3066 24.4841 22.3066 0.419976Z" fill="#134A45"/>
<path d="M22.3066 87.5957C22.3066 63.5316 41.8303 44.0079 65.8944 44.0079L44.1005 44.0079C20.0364 44.0079 0.512696 63.5316 0.512695 87.5957L22.3066 87.5957Z" fill="#CBD0D5"/>
<path d="M22.3066 87.5957L44.1006 87.5957C44.1006 63.5316 63.6243 44.0079 87.6884 44.0079L65.8945 44.0079C41.8304 44.0079 22.3066 63.5316 22.3066 87.5957Z" fill="#134A45"/>
<path d="M87.6889 44.0078C63.6248 44.0078 44.1011 24.4841 44.1011 0.419976C68.1652 0.419977 87.6889 19.9437 87.6889 44.0078Z" fill="#508883"/>
<path d="M87.6889 44.0079C63.6248 44.0079 44.1011 63.5316 44.1011 87.5957C68.1652 87.5957 87.6889 68.072 87.6889 44.0079Z" fill="#508883"/>
<path d="M11.4097 44.0078C8.5196 44.0078 5.74792 42.8597 3.70434 40.8162C1.66076 38.7726 0.512695 36.0009 0.512695 33.1109L0.512695 44.0078L11.4097 44.0078Z" fill="#508883"/>
<path d="M11.4097 44.0078C8.5196 44.0078 5.74792 45.1559 3.70434 47.1995C1.66076 49.2431 0.512695 52.0147 0.512695 54.9048L0.512695 44.0078L11.4097 44.0078Z" fill="#508883"/>
<path d="M87.6895 0.420029L87.6895 87.5957L174.865 87.5957L174.865 0.42003L87.6895 0.420029Z" fill="#B961CD"/>
<path d="M174.866 44.0079L174.866 87.5957L218.454 87.5957C218.454 63.5316 198.93 44.0079 174.866 44.0079Z" fill="#134A45"/>
<path d="M131.278 87.5957L174.866 87.5957L174.866 44.0079C150.802 44.0079 131.278 63.5316 131.278 87.5957Z" fill="#CBD0D5"/>
<path d="M131.278 87.5957C131.277 83.3775 131.889 79.1816 133.094 75.1391L133.094 87.5957L131.278 87.5957Z" fill="#746F6B"/>
<path d="M133.693 87.5957L133.693 73.2934C134.192 71.8545 134.767 70.4428 135.414 69.0641L135.414 87.5957L133.693 87.5957Z" fill="#746F6B"/>
<path d="M136.111 87.5957L136.111 67.6543C136.62 66.669 137.158 65.7042 137.735 64.7643L137.735 87.5957L136.111 87.5957Z" fill="#746F6B"/>
<path d="M138.527 87.5957L138.527 63.5316C139.017 62.793 139.527 62.0718 140.057 61.3681L140.057 87.5957L138.527 87.5957Z" fill="#746F6B"/>
<path d="M140.944 87.5957L140.944 60.2353C141.407 59.6616 141.884 59.0994 142.376 58.5485L142.376 87.5957L140.944 87.5957Z" fill="#746F6B"/>
<path d="M143.359 87.5957L143.359 57.4929C143.795 57.0388 144.242 56.5848 144.697 56.1512L144.697 87.5957L143.359 87.5957Z" fill="#746F6B"/>
<path d="M145.777 87.5957L145.777 55.1318C146.184 54.7663 146.597 54.4099 147.017 54.058L147.017 87.5957L145.777 87.5957Z" fill="#746F6B"/>
<path d="M148.194 87.5957L148.194 53.1341C148.571 52.8405 148.953 52.5536 149.34 52.2737L149.34 87.5957L148.194 87.5957Z" fill="#746F6B"/>
<path d="M150.611 87.5957L150.611 51.3792C150.954 51.1522 151.308 50.9252 151.66 50.6981L151.66 87.5957L150.611 87.5957Z" fill="#746F6B"/>
<path d="M153.026 87.5957L153.026 49.8809C153.344 49.6947 153.657 49.5086 153.979 49.3315L153.979 87.5957L153.026 87.5957Z" fill="#746F6B"/>
<path d="M155.442 87.5957L155.442 48.5755C155.728 48.4325 156.012 48.2917 156.3 48.1555L156.3 87.5957L155.442 87.5957Z" fill="#746F6B"/>
<path d="M157.859 87.5957L157.859 47.4518C158.109 47.3451 158.368 47.2497 158.62 47.1498L158.62 87.5957L157.859 87.5957Z" fill="#746F6B"/>
<path d="M160.275 87.5957L160.275 46.5187C160.502 46.4393 160.729 46.3689 160.942 46.2917L160.942 87.5957L160.275 87.5957Z" fill="#746F6B"/>
<path d="M162.693 87.5957L162.693 45.7446C162.882 45.6878 163.072 45.6356 163.263 45.5811L163.263 87.5957L162.693 87.5957Z" fill="#746F6B"/>
<path d="M165.104 87.5957L165.104 45.118C165.263 45.0817 165.42 45.0431 165.578 45.009L165.578 87.5957L165.104 87.5957Z" fill="#746F6B"/>
<path d="M167.526 87.5957L167.526 44.6344C167.651 44.614 167.776 44.589 167.903 44.5686L167.903 87.5957L167.526 87.5957Z" fill="#746F6B"/>
<path d="M169.941 87.5957L169.941 44.2916C170.037 44.2916 170.13 44.2667 170.225 44.2553L170.225 87.5957L169.941 87.5957Z" fill="#746F6B"/>
<path d="M172.369 87.5957L172.369 44.0851C172.43 44.0851 172.491 44.0737 172.555 44.0714L172.555 87.5957L172.369 87.5957Z" fill="#746F6B"/>
<path d="M174.775 87.5957L174.775 44.0079C174.804 44.0079 174.836 44.0079 174.866 44.0079L174.866 87.5957L174.775 87.5957Z" fill="#746F6B"/>
<path d="M177.099 87.5957L177.099 44.0646C177.163 44.0646 177.224 44.0646 177.288 44.0782L177.288 87.5957L177.099 87.5957Z" fill="#746F6B"/>
<path d="M179.427 87.5957L179.427 44.2349C179.522 44.2349 179.615 44.2598 179.708 44.2712L179.708 87.5957L179.427 87.5957Z" fill="#746F6B"/>
<path d="M181.751 87.5957L181.751 44.555C181.878 44.5754 182.003 44.6004 182.13 44.6231L182.13 87.5957L181.751 87.5957Z" fill="#746F6B"/>
<path d="M184.079 87.5957L184.079 44.9931C184.238 45.0272 184.394 45.0658 184.553 45.1021L184.553 87.5957L184.079 87.5957Z" fill="#746F6B"/>
<path d="M186.402 87.5957L186.402 45.5629C186.593 45.6152 186.784 45.6696 186.972 45.7241L186.972 87.5957L186.402 87.5957Z" fill="#746F6B"/>
<path d="M188.73 87.5957L188.73 46.2781C188.957 46.3507 189.184 46.4234 189.395 46.5051L189.395 87.5957L188.73 87.5957Z" fill="#746F6B"/>
<path d="M191.055 87.5957L191.055 47.1271C191.309 47.2293 191.565 47.3201 191.817 47.4268L191.817 87.5957L191.055 87.5957Z" fill="#746F6B"/>
<path d="M193.381 87.5957L193.381 48.1328C193.667 48.269 193.953 48.4075 194.237 48.5505L194.237 87.5957L193.381 87.5957Z" fill="#746F6B"/>
<path d="M195.706 87.5957L195.706 49.3042C196.028 49.4813 196.341 49.6697 196.659 49.8536L196.659 87.5957L195.706 87.5957Z" fill="#746F6B"/>
<path d="M198.022 87.5957L198.022 50.68C198.374 50.907 198.728 51.134 199.073 51.361L199.073 87.5957L198.022 87.5957Z" fill="#746F6B"/>
<path d="M200.357 87.5957L200.357 52.2487C200.743 52.5287 201.122 52.814 201.493 53.1046L201.493 87.5957L200.357 87.5957Z" fill="#746F6B"/>
<path d="M202.683 87.5957L202.683 54.0399C203.105 54.3895 203.516 54.7504 203.925 55.116L203.925 87.5957L202.683 87.5957Z" fill="#746F6B"/>
<path d="M205.009 87.5957L205.009 56.1285C205.463 56.5643 205.917 57.0093 206.346 57.4656L206.346 87.5957L205.009 87.5957Z" fill="#746F6B"/>
<path d="M207.33 87.5957L207.33 58.5235C207.823 59.0729 208.3 59.6352 208.762 60.2103L208.762 87.5957L207.33 87.5957Z" fill="#746F6B"/>
<path d="M209.661 87.5957L209.661 61.3454C210.192 62.0491 210.702 62.7688 211.189 63.5043L211.189 87.5957L209.661 87.5957Z" fill="#746F6B"/>
<path d="M211.986 87.5957L211.986 64.7484C212.565 65.686 213.103 66.6508 213.611 67.6338L213.611 87.5957L211.986 87.5957Z" fill="#746F6B"/>
<path d="M214.312 87.5957L214.312 69.0436C214.959 70.4206 215.533 71.8308 216.031 73.2685L216.031 87.5957L214.312 87.5957Z" fill="#746F6B"/>
<path d="M218.454 87.5957L216.638 87.5957L216.638 75.1391C217.843 79.1816 218.455 83.3775 218.454 87.5957Z" fill="#746F6B"/>
<path d="M131.278 0.419976C131.278 24.4841 150.802 44.0078 174.866 44.0078C198.93 44.0078 218.454 24.4841 218.454 0.419977L131.278 0.419976Z" fill="#746F6B"/>
</svg>
