<svg width="60" height="60" viewBox="0 0 60 60" fill="none" xmlns="http://www.w3.org/2000/svg">
<rect x="0.660156" y="0.689697" width="58.7113" height="58.7113" fill="#508883"/>
<path d="M30.0155 41.9316H24.0723V47.8748H30.0155V41.9316Z" fill="#CBD0D5"/>
<path d="M41.9012 41.9316H35.958V47.8748H41.9012V41.9316Z" fill="#CBD0D5"/>
<path d="M18.1288 41.9316H12.1855V47.8748H18.1288V41.9316Z" fill="#CBD0D5"/>
<path d="M30.0155 12.2156H24.0723V18.1588H30.0155V12.2156Z" fill="#CBD0D5"/>
<path d="M41.9012 12.2156H35.958V18.1588H41.9012V12.2156Z" fill="#CBD0D5"/>
<path d="M18.1288 12.2156H12.1855V18.1588H18.1288V12.2156Z" fill="#CBD0D5"/>
<path d="M24.0721 18.1587H18.1289V41.9315H24.0721V18.1587Z" fill="#134A45"/>
<path d="M35.9588 18.1587H30.0156V41.9315H35.9588V18.1587Z" fill="#134A45"/>
<path d="M47.8446 18.1587H41.9014V41.9315H47.8446V18.1587Z" fill="#134A45"/>
</svg>
