<svg width="60" height="60" viewBox="0 0 60 60" fill="none" xmlns="http://www.w3.org/2000/svg">
<rect x="0.910156" y="0.720703" width="58.7113" height="58.7113" fill="#96C9E9"/>
<path d="M19.4752 13.8842C19.4752 14.5937 19.3352 15.2963 19.0634 15.9518C18.7916 16.6072 18.3932 17.2026 17.891 17.7039C17.3888 18.2052 16.7927 18.6025 16.1368 18.8732C15.4809 19.1438 14.778 19.2825 14.0685 19.2812V19.2812C12.6371 19.2812 11.2643 18.7126 10.2522 17.7005C9.24 16.6883 8.67139 15.3156 8.67139 13.8842V13.8842C8.67139 12.4528 9.24 11.08 10.2522 10.0678C11.2643 9.05569 12.6371 8.48707 14.0685 8.48707V8.48707C14.778 8.48581 15.4809 8.62447 16.1368 8.89514C16.7927 9.1658 17.3888 9.56315 17.891 10.0644C18.3932 10.5657 18.7916 11.1611 19.0634 11.8165C19.3352 12.472 19.4752 13.1746 19.4752 13.8842V13.8842Z" fill="#B961CD"/>
<path d="M19.4752 24.6779C19.4752 25.3874 19.3352 26.09 19.0634 26.7455C18.7916 27.4009 18.3932 27.9963 17.891 28.4976C17.3888 28.9989 16.7927 29.3962 16.1368 29.6669C15.4809 29.9375 14.778 30.0762 14.0685 30.0749V30.0749C12.6371 30.0749 11.2643 29.5063 10.2522 28.4942C9.24 27.482 8.67139 26.1093 8.67139 24.6779V24.6779C8.67139 23.2465 9.24 21.8737 10.2522 20.8615C11.2643 19.8494 12.6371 19.2808 14.0685 19.2808V19.2808C14.778 19.2795 15.4809 19.4182 16.1368 19.6888C16.7927 19.9595 17.3888 20.3568 17.891 20.8581C18.3932 21.3594 18.7916 21.9548 19.0634 22.6103C19.3352 23.2657 19.4752 23.9683 19.4752 24.6779V24.6779Z" fill="#E5E8EB"/>
<path d="M30.2692 13.8839C30.2692 14.5931 30.1294 15.2953 29.8579 15.9504C29.5864 16.6055 29.1884 17.2007 28.6867 17.7019C28.1851 18.2032 27.5895 18.6006 26.9341 18.8716C26.2788 19.1425 25.5765 19.2816 24.8673 19.281V19.281C23.4359 19.281 22.0631 18.7124 21.051 17.7002C20.0388 16.6881 19.4702 15.3153 19.4702 13.8839V13.8839C19.4702 12.4525 20.0388 11.0797 21.051 10.0676C22.0631 9.05544 23.4359 8.48682 24.8673 8.48682V8.48682C25.5765 8.48619 26.2788 8.62532 26.9341 8.89626C27.5895 9.16721 28.1851 9.56466 28.6867 10.0659C29.1884 10.5671 29.5864 11.1623 29.8579 11.8174C30.1294 12.4725 30.2692 13.1747 30.2692 13.8839V13.8839Z" fill="#E5E8EB"/>
<path d="M30.2687 24.6779C30.2687 25.387 30.1289 26.0892 29.8574 26.7443C29.5859 27.3995 29.1879 27.9946 28.6862 28.4959C28.1846 28.9971 27.589 29.3945 26.9337 29.6655C26.2783 29.9364 25.576 30.0756 24.8668 30.0749V30.0749C23.4354 30.0749 22.0626 29.5063 21.0505 28.4942C20.0383 27.482 19.4697 26.1092 19.4697 24.6779V24.6779C19.4697 23.2465 20.0383 21.8737 21.0505 20.8615C22.0626 19.8494 23.4354 19.2808 24.8668 19.2808V19.2808C25.576 19.2801 26.2783 19.4193 26.9337 19.6902C27.589 19.9612 28.1846 20.3586 28.6862 20.8598C29.1879 21.3611 29.5859 21.9563 29.8574 22.6114C30.1289 23.2665 30.2687 23.9687 30.2687 24.6779V24.6779Z" fill="#E5E8EB"/>
<path d="M41.0656 35.4718C41.0656 36.9038 40.4967 38.2772 39.4841 39.2898C38.4715 40.3024 37.0982 40.8713 35.6661 40.8713C34.9572 40.8713 34.2552 40.7316 33.6002 40.4602C32.9452 40.1889 32.3502 39.7911 31.849 39.2897C31.3478 38.7882 30.9503 38.193 30.6792 37.5379C30.4081 36.8828 30.2687 36.1808 30.269 35.4718V35.4718C30.269 34.0404 30.8377 32.6676 31.8498 31.6555C32.862 30.6433 34.2347 30.0747 35.6661 30.0747V30.0747C36.3751 30.0744 37.0772 30.2138 37.7322 30.4849C38.3873 30.7559 38.9826 31.1534 39.484 31.6546C39.9854 32.1558 40.3832 32.7509 40.6546 33.4059C40.9259 34.0608 41.0656 34.7628 41.0656 35.4718Z" fill="#E5E8EB"/>
<path d="M41.0656 46.2682C41.0656 46.9772 40.9259 47.6792 40.6546 48.3341C40.3832 48.9891 39.9854 49.5842 39.484 50.0854C38.9826 50.5865 38.3873 50.9841 37.7322 51.2552C37.0772 51.5262 36.3751 51.6656 35.6661 51.6653V51.6653C34.2347 51.6653 32.862 51.0967 31.8498 50.0845C30.8377 49.0724 30.269 47.6996 30.269 46.2682V46.2682C30.2687 45.5594 30.4081 44.8574 30.6792 44.2024C30.9504 43.5475 31.3479 42.9524 31.8491 42.4512C32.3503 41.95 32.9454 41.5524 33.6004 41.2813C34.2553 41.0102 34.9573 40.8708 35.6661 40.8711C36.3751 40.8708 37.0772 41.0102 37.7322 41.2812C38.3873 41.5523 38.9826 41.9498 39.484 42.451C39.9854 42.9522 40.3832 43.5473 40.6546 44.2023C40.9259 44.8572 41.0656 45.5593 41.0656 46.2682V46.2682Z" fill="#E5E8EB"/>
<path d="M51.8591 35.4718C51.8594 36.1808 51.7201 36.8828 51.449 37.5379C51.1779 38.193 50.7804 38.7882 50.2792 39.2897C49.778 39.7911 49.1829 40.1889 48.528 40.4602C47.873 40.7316 47.171 40.8713 46.462 40.8713V40.8713C45.7531 40.8713 45.0511 40.7316 44.3961 40.4602C43.7411 40.1889 43.1461 39.7911 42.6449 39.2897C42.1437 38.7882 41.7462 38.193 41.4751 37.5379C41.204 36.8828 41.0646 36.1808 41.0649 35.4718V35.4718C41.0649 34.7628 41.2046 34.0608 41.476 33.4059C41.7474 32.7509 42.1451 32.1558 42.6466 31.6546C43.148 31.1534 43.7432 30.7559 44.3983 30.4849C45.0534 30.2138 45.7555 30.0744 46.4644 30.0747V30.0747C47.8954 30.0753 49.2676 30.6442 50.2792 31.6563C51.2908 32.6684 51.8591 34.0408 51.8591 35.4718V35.4718Z" fill="#B961CD"/>
<path d="M51.8596 46.2682C51.8596 47.6992 51.2914 49.0716 50.2797 50.0837C49.2681 51.0958 47.8959 51.6647 46.465 51.6653V51.6653C45.0336 51.6653 43.6608 51.0967 42.6486 50.0845C41.6365 49.0724 41.0679 47.6996 41.0679 46.2682V46.2682C41.0676 45.5594 41.2069 44.8574 41.4781 44.2024C41.7492 43.5475 42.1467 42.9524 42.6479 42.4512C43.1492 41.95 43.7443 41.5524 44.3992 41.2813C45.0542 41.0102 45.7561 40.8708 46.465 40.8711V40.8711C47.1736 40.8711 47.8753 41.0107 48.53 41.282C49.1846 41.5532 49.7795 41.9508 50.2804 42.452C50.7814 42.9532 51.1787 43.5482 51.4497 44.203C51.7207 44.8578 51.86 45.5596 51.8596 46.2682V46.2682Z" fill="#134A45"/>
<path d="M41.0656 13.8837C41.0656 14.5926 40.9259 15.2946 40.6546 15.9496C40.3832 16.6046 39.9854 17.1996 39.484 17.7008C38.9826 18.202 38.3873 18.5995 37.7322 18.8706C37.0772 19.1417 36.3751 19.2811 35.6661 19.2807V19.2807C34.2347 19.2807 32.862 18.7121 31.8498 17.7C30.8377 16.6878 30.269 15.3151 30.269 13.8837C30.269 12.4523 30.8377 11.0795 31.8498 10.0673C32.862 9.05519 34.2347 8.48657 35.6661 8.48657V8.48657C36.3751 8.48626 37.0772 8.62563 37.7322 8.89672C38.3873 9.16781 38.9826 9.56529 39.484 10.0665C39.9854 10.5677 40.3832 11.1628 40.6546 11.8177C40.9259 12.4727 41.0656 13.1747 41.0656 13.8837Z" fill="#E5E8EB"/>
<path d="M41.0656 24.6778C41.0656 25.3868 40.9259 26.0888 40.6546 26.7438C40.3832 27.3987 39.9854 27.9938 39.484 28.495C38.9826 28.9962 38.3873 29.3937 37.7322 29.6648C37.0772 29.9359 36.3751 30.0753 35.6661 30.0749V30.0749C34.2347 30.0749 32.862 29.5063 31.8498 28.4942C30.8377 27.482 30.269 26.1092 30.269 24.6778V24.6778C30.269 23.2465 30.8377 21.8737 31.8498 20.8615C32.862 19.8494 34.2347 19.2808 35.6661 19.2808V19.2808C36.3751 19.2804 37.0772 19.4198 37.7322 19.6909C38.3873 19.962 38.9826 20.3595 39.484 20.8607C39.9854 21.3619 40.3832 21.957 40.6546 22.6119C40.9259 23.2669 41.0656 23.9689 41.0656 24.6778Z" fill="#E5E8EB"/>
<path d="M51.8596 13.8837C51.8596 15.3146 51.2914 16.687 50.2797 17.6991C49.2681 18.7112 47.8959 19.2801 46.465 19.2807V19.2807C45.0336 19.2807 43.6608 18.7121 42.6486 17.7C41.6365 16.6878 41.0679 15.3151 41.0679 13.8837V13.8837C41.0679 12.4523 41.6365 11.0795 42.6486 10.0673C43.6608 9.05519 45.0336 8.48657 46.465 8.48657V8.48657C47.8959 8.48721 49.2681 9.05611 50.2797 10.0682C51.2914 11.0803 51.8596 12.4527 51.8596 13.8837V13.8837Z" fill="#134A45"/>
<path d="M51.8596 24.6778C51.8596 26.1088 51.2914 27.4812 50.2797 28.4933C49.2681 29.5054 47.8959 30.0743 46.465 30.0749V30.0749C45.0336 30.0749 43.6608 29.5063 42.6486 28.4942C41.6365 27.482 41.0679 26.1092 41.0679 24.6778V24.6778C41.0679 23.2465 41.6365 21.8737 42.6486 20.8615C43.6608 19.8494 45.0336 19.2808 46.465 19.2808V19.2808C47.8959 19.2814 49.2681 19.8503 50.2797 20.8624C51.2914 21.8745 51.8596 23.2469 51.8596 24.6778V24.6778Z" fill="#E5E8EB"/>
<path d="M19.4749 35.4718C19.4752 36.1808 19.3358 36.8828 19.0647 37.5379C18.7936 38.193 18.3961 38.7883 17.8949 39.2897C17.3937 39.7911 16.7987 40.1889 16.1437 40.4602C15.4887 40.7316 14.7867 40.8713 14.0778 40.8713V40.8713C13.3688 40.8713 12.6668 40.7316 12.0118 40.4602C11.3569 40.1889 10.7618 39.7911 10.2606 39.2897C9.75939 38.7883 9.3619 38.193 9.09081 37.5379C8.81972 36.8828 8.68035 36.1808 8.68066 35.4718V35.4718C8.68066 34.0421 9.24797 32.6708 10.258 31.6589C11.2681 30.647 12.6384 30.0773 14.0682 30.0747V30.0747C14.7777 30.0735 15.4806 30.2121 16.1365 30.4828C16.7924 30.7534 17.3885 31.1508 17.8907 31.6521C18.3929 32.1534 18.7913 32.7488 19.0631 33.4042C19.3349 34.0597 19.4749 34.7622 19.4749 35.4718V35.4718Z" fill="#E5E8EB"/>
<path d="M19.4752 46.2682C19.4752 46.9778 19.3352 47.6804 19.0634 48.3358C18.7916 48.9912 18.3932 49.5867 17.891 50.0879C17.3888 50.5892 16.7927 50.9866 16.1368 51.2572C15.4809 51.5279 14.778 51.6666 14.0685 51.6653V51.6653C12.6371 51.6653 11.2643 51.0967 10.2522 50.0845C9.24001 49.0724 8.67139 47.6996 8.67139 46.2682V46.2682C8.67107 45.5594 8.81046 44.8574 9.08158 44.2025C9.3527 43.5475 9.75022 42.9524 10.2515 42.4512C10.7527 41.95 11.3478 41.5524 12.0027 41.2813C12.6577 41.0102 13.3596 40.8708 14.0685 40.8711V40.8711C14.7781 40.8695 15.4811 41.008 16.1372 41.2786C16.7932 41.5491 17.3895 41.9464 17.8917 42.4478C18.394 42.9491 18.7923 43.5447 19.0641 44.2002C19.3358 44.8558 19.4755 45.5586 19.4752 46.2682V46.2682Z" fill="#E5E8EB"/>
<path d="M30.2688 35.4718C30.2691 36.1808 30.1297 36.8828 29.8586 37.5379C29.5876 38.193 29.1901 38.7882 28.6889 39.2897C28.1877 39.7911 27.5926 40.1889 26.9376 40.4602C26.2827 40.7316 25.5807 40.8713 24.8717 40.8713V40.8713C24.1627 40.8713 23.4607 40.7316 22.8058 40.4602C22.1508 40.1889 21.5557 39.7911 21.0545 39.2897C20.5533 38.7882 20.1558 38.193 19.8847 37.5379C19.6137 36.8828 19.4743 36.1808 19.4746 35.4718V35.4718C19.4746 34.0412 20.0426 32.6692 21.0537 31.6572C22.0648 30.6452 23.4363 30.076 24.8669 30.0747V30.0747C25.5761 30.0741 26.2784 30.2132 26.9337 30.4842C27.5891 30.7551 28.1846 31.1525 28.6863 31.6538C29.188 32.155 29.586 32.7502 29.8575 33.4053C30.129 34.0604 30.2688 34.7626 30.2688 35.4718V35.4718Z" fill="#134A45"/>
<path d="M30.2687 46.2682C30.2687 46.9774 30.1289 47.6796 29.8574 48.3347C29.5859 48.9898 29.1879 49.585 28.6862 50.0862C28.1846 50.5874 27.589 50.9849 26.9337 51.2558C26.2783 51.5268 25.576 51.6659 24.8668 51.6653V51.6653C23.4354 51.6653 22.0626 51.0967 21.0505 50.0845C20.0383 49.0724 19.4697 47.6996 19.4697 46.2682V46.2682C19.4694 45.5594 19.6088 44.8574 19.8799 44.2025C20.151 43.5475 20.5486 42.9524 21.0498 42.4512C21.551 41.95 22.1461 41.5524 22.8011 41.2813C23.456 41.0102 24.158 40.8708 24.8668 40.8711C25.5761 40.8702 26.2785 41.0091 26.934 41.2799C27.5895 41.5508 28.1852 41.9482 28.6869 42.4495C29.1887 42.9508 29.5866 43.5461 29.8581 44.2013C30.1295 44.8566 30.269 45.559 30.2687 46.2682Z" fill="#E5E8EB"/>
</svg>
