<svg width="154" height="153" viewBox="0 0 154 153" fill="none" xmlns="http://www.w3.org/2000/svg">
<path d="M153.147 0.698242H0.852539V152.992H153.147V0.698242Z" fill="#B961CD"/>
<path d="M97.6832 64.7803V88.9104L77.0003 100.975L56.3174 88.9104V64.7803L77.0003 52.7153L97.6832 64.7803Z" fill="#CBD0D5"/>
<path d="M90.9302 28.585L101.13 45.6771V51.7096H52.8701V45.6771L63.0701 28.585H90.9302Z" fill="#134A45"/>
<path d="M28.7402 62.9153L45.8323 52.7153H51.8648V100.975H45.8323L28.7402 90.7754V62.9153Z" fill="#134A45"/>
<path d="M63.0701 125.105L52.8701 108.013V101.981H101.13V108.013L90.9302 125.105H63.0701Z" fill="#134A45"/>
<path d="M125.26 90.7754L108.168 100.975H102.135V52.7153H108.168L125.26 62.9153V90.7754Z" fill="#134A45"/>
<path d="M51.8648 28.585H28.7402V51.7096H51.8648V28.585Z" fill="#CBD0D5"/>
<path d="M51.8648 101.981H28.7402V125.105H51.8648V101.981Z" fill="#CBD0D5"/>
<path d="M125.26 28.585H102.135V51.7096H125.26V28.585Z" fill="#CBD0D5"/>
<path d="M125.26 101.981H102.135V125.105H125.26V101.981Z" fill="#CBD0D5"/>
</svg>
